<?xml version="1.0" encoding="UTF-8" standalone="no"?>
<svg
   xmlns:dc="http://purl.org/dc/elements/1.1/"
   xmlns:cc="http://creativecommons.org/ns#"
   xmlns:rdf="http://www.w3.org/1999/02/22-rdf-syntax-ns#"
   xmlns:svg="http://www.w3.org/2000/svg"
   xmlns="http://www.w3.org/2000/svg"
   xmlns:sodipodi="http://sodipodi.sourceforge.net/DTD/sodipodi-0.dtd"
   xmlns:inkscape="http://www.inkscape.org/namespaces/inkscape"
   viewBox="0 0 1152 864"
   height="864"
   width="1152"
   xml:space="preserve"
   id="svg2"
   version="1.1"
   sodipodi:docname="Modu-4.pdf.svg"
   inkscape:version="0.92.3 (2405546, 2018-03-11)"><sodipodi:namedview
     pagecolor="#ffffff"
     bordercolor="#666666"
     borderopacity="1"
     objecttolerance="10"
     gridtolerance="10"
     guidetolerance="10"
     inkscape:pageopacity="0"
     inkscape:pageshadow="2"
     inkscape:window-width="640"
     inkscape:window-height="480"
     id="namedview92"
     showgrid="false"
     inkscape:zoom="0.24652778"
     inkscape:cx="576"
     inkscape:cy="432"
     inkscape:window-x="0"
     inkscape:window-y="0"
     inkscape:window-maximized="0"
     inkscape:current-layer="svg2" /><metadata
     id="metadata8"><rdf:RDF><cc:Work
         rdf:about=""><dc:format>image/svg+xml</dc:format><dc:type
           rdf:resource="http://purl.org/dc/dcmitype/StillImage" /></cc:Work></rdf:RDF></metadata><defs
     id="defs6" /><path
     style="fill:#ebe8b4;fill-opacity:1;fill-rule:nonzero;stroke:none;stroke-width:1.33333325"
     d="m 640.99023,187.96484 c -36.09209,0.79489 -71.95296,6.83741 -105.83702,19.63119 -34.54513,11.56734 -67.32223,33.21949 -85.27626,65.78874 -13.85755,27.17379 -29.73777,59.5229 -18.48725,90.22095 1.70318,17.11306 -39.40879,28.35523 -23.21309,47.82764 13.04996,22.67338 35.91499,43.84467 16.87629,70.54272 -7.06905,15.56872 -7.01527,31.87952 7.8514,42.57665 -12.73802,19.9519 4.24239,18.02344 12.01448,19.23387 5.79805,18.82445 -2.96887,40.53324 13.36442,52.9341 10.57239,45.42407 5.53092,92.47436 -3.04552,137.74007 6.41756,22.61272 40.12349,-43.03434 27.66652,-7.65325 -5.76804,10.66604 -14.06854,32.68134 5.70184,18.71799 43.57753,-19.78263 79.19292,-52.41815 112.70255,-85.84387 30.19265,-2.40069 58.18162,-16.834 85.06238,-29.92369 11.94655,-11.37581 47.937,-21.87456 37.58186,-40.41697 -13.59255,-17.96857 -1.97996,-16.98694 12.65907,-10.11392 19.32577,2.62111 8.08207,-42.363 33.48041,-22.47817 20.36899,6.99689 37.08654,-6.9626 23.44089,-26.2235 -6.28554,-32.4208 -0.86526,-66.95864 8.25281,-98.0618 14.04593,-42.87549 13.73115,-90.43341 -2.25645,-132.73479 -6.14932,-25.95281 -27.70005,-44.17996 -47.04714,-59.89286 -13.23018,-23.00516 -39.74062,-35.26562 -62.9129,-46.24406 -15.71807,-4.70821 -32.32023,-4.91381 -48.57929,-5.62704 z"
     id="path232"
     inkscape:connector-curvature="0" /></svg>