<svg version="1.1" xmlns="http://www.w3.org/2000/svg" xmlns:xlink="http://www.w3.org/1999/xlink" width="1152" height="864"><defs><clippath id="clip-1"><rect x="0" y="0" width="1152" height="864" fill="none" stroke-width="1"></rect></clippath></defs><g fill="none" fill-rule="nonzero" stroke="none" stroke-width="none" stroke-linecap="butt" stroke-linejoin="miter" stroke-miterlimit="10" stroke-dasharray="" stroke-dashoffset="0" font-family="none" font-weight="none" font-size="none" text-anchor="none" style="mix-blend-mode: normal"><g clip-path="url(#clip-1)" id="svg2"><path d="M640.99023,187.96484c-36.09209,0.79489 -71.95296,6.83741 -105.83702,19.63119c-34.54513,11.56734 -67.32223,33.21949 -85.27626,65.78874c-13.85755,27.17379 -29.73777,59.5229 -18.48725,90.22095c1.70318,17.11306 -39.40879,28.35523 -23.21309,47.82764c13.04996,22.67338 35.91499,43.84467 16.87629,70.54272c-7.06905,15.56872 -7.01527,31.87952 7.8514,42.57665c-12.73802,19.9519 4.24239,18.02344 12.01448,19.23387c5.79805,18.82445 -2.96887,40.53324 13.36442,52.9341c10.57239,45.42407 5.53092,92.47436 -3.04552,137.74007c6.41756,22.61272 40.12349,-43.03434 27.66652,-7.65325c-5.76804,10.66604 -14.06854,32.68134 5.70184,18.71799c43.57753,-19.78263 79.19292,-52.41815 112.70255,-85.84387c30.19265,-2.40069 58.18162,-16.834 85.06238,-29.92369c11.94655,-11.37581 47.937,-21.87456 37.58186,-40.41697c-13.59255,-17.96857 -1.97996,-16.98694 12.65907,-10.11392c19.32577,2.62111 8.08207,-42.363 33.48041,-22.47817c20.36899,6.99689 37.08654,-6.9626 23.44089,-26.2235c-6.28554,-32.4208 -0.86526,-66.95864 8.25281,-98.0618c14.04593,-42.87549 13.73115,-90.43341 -2.25645,-132.73479c-6.14932,-25.95281 -27.70005,-44.17996 -47.04714,-59.89286c-13.23018,-23.00516 -39.74062,-35.26562 -62.9129,-46.24406c-15.71807,-4.70821 -32.32023,-4.91381 -48.57929,-5.62704z" id="path232" fill="#ebe8b4" stroke-width="1.33333"></path></g></g></svg>